<svg id="brand" viewBox="0 0 369 78" fill="none" xmlns="http://www.w3.org/2000/svg">
		<path
			d="M139.063 33.2963C139.063 35.8549 138.57 38.1211 137.655 40.0217C136.741 41.9224 135.545 43.4575 133.997 44.7003C132.519 45.943 130.831 46.8202 128.931 47.4051C127.032 47.9899 125.132 48.2823 123.162 48.2823H111.131V46.7471C111.553 46.7471 112.045 46.674 112.679 46.6009C113.312 46.5278 113.734 46.4547 113.945 46.3085C114.367 46.0892 114.649 45.8699 114.86 45.5044C115.071 45.1389 115.141 44.7003 115.141 44.1886V22.4041C115.141 21.8923 115.071 21.4537 114.93 21.0882C114.789 20.7227 114.438 20.4303 114.015 20.1379C113.593 19.9186 113.101 19.7724 112.608 19.6993C112.116 19.6262 111.694 19.5531 111.342 19.48V17.9448H124.077C125.835 17.9448 127.524 18.2372 129.213 18.8221C130.901 19.4069 132.379 20.1379 133.645 21.0882C135.334 22.331 136.67 24.0123 137.655 26.0592C138.57 28.106 139.063 30.5184 139.063 33.2963ZM134.067 33.2963C134.067 31.2494 133.786 29.4219 133.293 27.8136C132.801 26.2054 132.027 24.7433 131.042 23.5006C130.127 22.331 128.931 21.4537 127.594 20.7227C126.187 20.0648 124.71 19.6993 123.021 19.6993C122.458 19.6993 121.825 19.6993 121.122 19.6993C120.418 19.6993 119.925 19.7724 119.574 19.7724V43.0189C119.574 44.3348 119.925 45.212 120.629 45.7237C121.333 46.2354 122.458 46.4547 124.006 46.4547C125.765 46.4547 127.243 46.1623 128.579 45.5044C129.846 44.8465 130.901 43.9692 131.745 42.8727C132.59 41.7031 133.223 40.3141 133.575 38.7059C133.856 37.1707 134.067 35.3432 134.067 33.2963Z"
			fill="currentColor"
		/>
		<path
			d="M151.093 48.2092H141.313V46.8202C141.594 46.8202 141.946 46.7471 142.298 46.7471C142.65 46.7471 142.931 46.674 143.142 46.6009C143.494 46.4547 143.775 46.2354 143.986 45.943C144.198 45.6506 144.268 45.212 144.268 44.7003V31.6881C144.268 31.2494 144.198 30.8108 143.986 30.4453C143.775 30.0798 143.494 29.7874 143.142 29.495C142.861 29.3488 142.509 29.2026 142.016 29.0564C141.524 28.9102 141.102 28.8371 140.68 28.8371V27.4481L147.786 27.0095L148.067 27.3019V44.4079C148.067 44.9196 148.138 45.2851 148.349 45.6506C148.56 45.943 148.841 46.2354 149.193 46.3816C149.474 46.5278 149.756 46.6009 150.037 46.674C150.319 46.7471 150.67 46.8202 151.022 46.8202V48.2092H151.093ZM148.489 18.6758C148.489 19.48 148.208 20.211 147.715 20.7958C147.223 21.3806 146.59 21.673 145.816 21.673C145.112 21.673 144.479 21.3806 143.986 20.7958C143.494 20.211 143.213 19.5531 143.213 18.822C143.213 18.0179 143.494 17.36 143.986 16.7752C144.479 16.1904 145.112 15.8979 145.816 15.8979C146.59 15.8979 147.223 16.1904 147.715 16.7021C148.278 17.2869 148.489 17.9448 148.489 18.6758Z"
			fill="currentColor"
		/>
		<path
			d="M169.246 46.0894C169.809 46.6011 170.231 47.259 170.512 47.917C170.794 48.5749 171.005 49.4521 171.005 50.4755C171.005 51.499 170.794 52.4493 170.371 53.3265C169.949 54.2038 169.316 55.0079 168.472 55.6658C167.557 56.3237 166.431 56.8354 165.165 57.2009C163.899 57.5665 162.351 57.7858 160.451 57.7858C157.355 57.7858 155.104 57.3472 153.556 56.3968C152.008 55.4465 151.305 54.1307 151.305 52.3031C151.305 50.841 151.868 49.7445 152.923 48.8673C154.049 48.0632 155.385 47.5514 157.074 47.4783V47.1859C156.652 47.0397 156.23 46.8935 155.808 46.6742C155.385 46.4549 154.963 46.2356 154.682 46.0163C154.33 45.7239 154.049 45.3584 153.838 44.9929C153.626 44.5542 153.486 44.1156 153.486 43.4577C153.486 42.7267 153.767 41.9957 154.26 41.4108C154.752 40.7529 155.526 40.2412 156.581 39.8026V39.5102C155.245 38.8523 154.26 38.0481 153.556 37.0247C152.853 36.0013 152.501 34.8316 152.501 33.5158C152.501 31.542 153.204 29.8607 154.611 28.6179C156.019 27.3752 157.848 26.7173 160.099 26.7173C160.733 26.7173 161.295 26.7904 161.929 26.9366C162.562 27.0828 163.125 27.229 163.758 27.4483H170.794V29.4952H166.009V29.6414C166.502 30.2262 166.924 30.9572 167.135 31.6882C167.416 32.4193 167.487 33.1503 167.487 33.8813C167.487 35.7089 166.783 37.3171 165.306 38.5599C163.828 39.8026 162.21 40.4605 160.24 40.4605H157.778C157.496 40.6067 157.144 40.7529 156.793 41.0453C156.441 41.3377 156.3 41.7764 156.3 42.2881C156.3 42.7998 156.441 43.2384 156.722 43.4577C157.004 43.7501 157.355 43.8963 157.778 44.0425C158.2 44.1887 158.622 44.2618 159.185 44.2618C159.677 44.2618 160.24 44.3349 160.803 44.3349C161.436 44.3349 162.21 44.408 163.265 44.4811C164.321 44.5543 165.024 44.6274 165.517 44.6274C166.15 44.6274 166.783 44.8467 167.416 45.066C168.12 45.1391 168.683 45.5777 169.246 46.0894ZM167.627 51.2066C167.627 50.4024 167.416 49.7445 167.065 49.2328C166.713 48.7211 166.15 48.3556 165.446 48.2094C165.095 48.1363 164.25 48.0632 163.054 47.9901C161.858 47.917 160.451 47.917 158.903 47.917C157.426 48.2094 156.37 48.7211 155.737 49.4521C155.104 50.1831 154.823 51.0604 154.823 52.1569C154.823 52.6686 154.893 53.1072 155.104 53.6189C155.315 54.0576 155.667 54.4962 156.159 54.8617C156.652 55.2272 157.285 55.5196 158.059 55.7389C158.833 55.9582 159.818 56.1044 161.014 56.1044C163.054 56.1044 164.602 55.7389 165.728 54.9348C167.065 54.0575 167.627 52.8148 167.627 51.2066ZM163.687 33.5889C163.687 31.9076 163.336 30.5917 162.702 29.6414C162.069 28.691 161.155 28.1793 159.959 28.1793C159.325 28.1793 158.763 28.3255 158.34 28.6179C157.848 28.9104 157.496 29.2759 157.215 29.7876C156.933 30.2262 156.722 30.811 156.652 31.4689C156.511 32.1269 156.511 32.7848 156.511 33.5158C156.511 35.1241 156.863 36.3668 157.496 37.3902C158.129 38.4137 159.044 38.8523 160.099 38.8523C161.295 38.8523 162.21 38.3406 162.843 37.3902C163.406 36.3668 163.687 35.1241 163.687 33.5889Z"
			fill="currentColor"
		/>
		<path
			d="M183.106 48.2092H173.327V46.8202C173.608 46.8202 173.96 46.7471 174.312 46.7471C174.663 46.7471 174.945 46.674 175.156 46.6009C175.508 46.4547 175.789 46.2354 176 45.943C176.211 45.6506 176.282 45.212 176.282 44.7003V31.6881C176.282 31.2494 176.211 30.8108 176 30.4453C175.789 30.0798 175.508 29.7874 175.156 29.495C174.874 29.3488 174.523 29.2026 174.03 29.0564C173.538 28.9102 173.116 28.8371 172.693 28.8371V27.4481L179.799 27.0095L180.081 27.3019V44.4079C180.081 44.9196 180.151 45.2851 180.362 45.6506C180.573 45.943 180.855 46.2354 181.207 46.3816C181.488 46.5278 181.769 46.6009 182.051 46.674C182.332 46.7471 182.684 46.8202 183.036 46.8202V48.2092H183.106ZM180.503 18.6758C180.503 19.48 180.222 20.211 179.729 20.7958C179.237 21.3806 178.603 21.673 177.829 21.673C177.126 21.673 176.493 21.3806 176 20.7958C175.508 20.211 175.226 19.5531 175.226 18.822C175.226 18.0179 175.508 17.36 176 16.7752C176.493 16.1904 177.126 15.8979 177.829 15.8979C178.603 15.8979 179.237 16.1904 179.729 16.7021C180.292 17.2869 180.503 17.9448 180.503 18.6758Z"
			fill="currentColor"
		/>
		<path
			d="M197.247 47.332C196.332 47.6975 195.488 48.0631 194.714 48.2824C193.94 48.5748 192.955 48.6479 191.829 48.6479C190.141 48.6479 188.945 48.2093 188.241 47.332C187.538 46.4548 187.186 45.2121 187.186 43.6038V29.3489H183.527V27.302H187.256V20.7959H190.985V27.302H196.754V29.3489H190.985V41.1183C190.985 41.9956 190.985 42.7266 191.056 43.3114C191.126 43.8962 191.267 44.408 191.478 44.8466C191.689 45.2852 192.041 45.5776 192.463 45.7969C192.885 46.0162 193.518 46.0893 194.222 46.0893C194.573 46.0893 195.066 46.0893 195.699 46.0162C196.332 45.9431 196.825 45.87 197.106 45.7969V47.332H197.247Z"
			fill="currentColor"
		/>
		<path
			d="M217.58 47.8438C216.947 48.0631 216.384 48.2824 215.892 48.4286C215.399 48.5748 214.836 48.6479 214.274 48.6479C213.218 48.6479 212.374 48.3555 211.741 47.8438C211.107 47.3321 210.685 46.601 210.545 45.5776H210.404C209.489 46.601 208.575 47.4052 207.519 47.9169C206.534 48.4286 205.268 48.721 203.861 48.721C202.313 48.721 201.117 48.2093 200.132 47.259C199.147 46.3086 198.654 45.0659 198.654 43.4576C198.654 42.6535 198.795 41.9225 199.006 41.2646C199.217 40.6067 199.569 40.0218 199.991 39.5101C200.343 39.0715 200.765 38.706 201.328 38.3405C201.891 37.975 202.383 37.7557 202.876 37.5364C203.509 37.3171 204.705 36.8784 206.605 36.2205C208.504 35.5626 209.771 35.0509 210.404 34.6854V32.5654C210.404 32.3461 210.334 32.0537 210.263 31.4689C210.193 30.9571 210.052 30.4454 209.771 30.0068C209.489 29.4951 209.137 29.0565 208.645 28.6179C208.152 28.2524 207.449 28.0331 206.534 28.0331C205.901 28.0331 205.338 28.1062 204.775 28.3986C204.212 28.6179 203.861 28.8372 203.65 29.0565C203.65 29.3489 203.72 29.7875 203.861 30.2992C204.001 30.884 204.072 31.3958 204.072 31.8344C204.072 32.3461 203.861 32.7847 203.439 33.2233C203.016 33.6619 202.383 33.8081 201.68 33.8081C200.976 33.8081 200.484 33.5888 200.202 33.0771C199.85 32.5654 199.71 31.9806 199.71 31.3958C199.71 30.7378 199.921 30.153 200.343 29.4951C200.765 28.9103 201.398 28.3986 202.102 27.8869C202.735 27.5213 203.439 27.1558 204.353 26.8634C205.197 26.571 206.112 26.4248 206.886 26.4248C208.012 26.4248 209.067 26.4979 209.911 26.6441C210.756 26.7903 211.53 27.1558 212.233 27.6675C212.937 28.1793 213.429 28.9103 213.851 29.7875C214.203 30.6647 214.414 31.8344 214.414 33.2964C214.414 35.3433 214.414 37.0977 214.344 38.706C214.274 40.2411 214.274 41.9956 214.274 43.8232C214.274 44.408 214.344 44.8466 214.555 45.139C214.766 45.4314 215.047 45.7238 215.399 45.9431C215.61 46.0893 215.962 46.1624 216.384 46.1624C216.806 46.1624 217.299 46.1624 217.721 46.1624V47.8438H217.58ZM210.404 36.586C209.208 36.9515 208.223 37.3171 207.379 37.6095C206.534 37.975 205.69 38.4136 204.916 38.9253C204.212 39.437 203.72 39.9487 203.298 40.6798C202.876 41.3377 202.735 42.1418 202.735 43.019C202.735 44.1887 203.016 45.0659 203.65 45.6507C204.212 46.2355 204.986 46.4548 205.901 46.4548C206.886 46.4548 207.73 46.2355 208.434 45.7238C209.137 45.2121 209.771 44.6273 210.334 43.9694L210.404 36.586Z"
			fill="currentColor"
		/>
		<path
			d="M229.048 48.209H219.198V46.8201C219.479 46.8201 219.831 46.747 220.183 46.747C220.535 46.747 220.816 46.6739 221.098 46.6008C221.449 46.4546 221.801 46.2353 221.942 45.9429C222.153 45.6504 222.223 45.2118 222.223 44.7001V20.2839C222.223 19.7722 222.083 19.2605 221.872 18.8219C221.66 18.3833 221.379 18.0178 221.027 17.7985C220.816 17.6523 220.324 17.5061 219.69 17.3599C219.057 17.2136 218.494 17.1405 218.143 17.1405V15.7516L225.741 15.313L226.023 15.6054V44.4077C226.023 44.9194 226.093 45.2849 226.304 45.6504C226.515 45.9429 226.796 46.2353 227.148 46.3815C227.43 46.5277 227.711 46.6008 228.063 46.6739C228.344 46.747 228.696 46.8201 229.048 46.8201V48.209Z"
			fill="currentColor"
		/>
		<path
			d="M277.314 48.209H264.438V46.6739C264.931 46.6739 265.494 46.6008 266.268 46.5277C266.971 46.4546 267.534 46.3084 267.745 46.1622C268.167 45.8698 268.449 45.5774 268.66 45.2118C268.871 44.8463 268.941 44.4077 268.941 43.896V21.9653H268.66L258.74 47.7704H257.684L248.256 21.4536H247.975V39.5099C247.975 41.2643 248.116 42.5802 248.327 43.5305C248.538 44.4077 248.89 45.0656 249.312 45.5043C249.593 45.7967 250.226 46.0891 251.211 46.3815C252.126 46.6739 252.759 46.8201 253.041 46.8201V48.3552H241.291V46.8201C241.924 46.747 242.557 46.6739 243.261 46.5277C243.965 46.3815 244.457 46.1622 244.809 45.7967C245.301 45.4312 245.583 44.7732 245.794 43.9691C246.005 43.165 246.075 41.776 246.075 39.8023V24.2315C246.075 23.3543 246.005 22.6232 245.794 22.0384C245.583 21.4536 245.301 21.015 244.879 20.6495C244.457 20.284 243.965 19.9915 243.331 19.7722C242.698 19.5529 242.135 19.4798 241.502 19.4798V17.9447H251.422L259.725 40.6064L266.831 21.5998C267.112 20.8688 267.323 20.2109 267.464 19.4067C267.675 18.6757 267.745 18.164 267.745 17.8716H277.243V19.4067C276.892 19.4067 276.399 19.4798 275.766 19.626C275.203 19.7722 274.711 19.8453 274.429 19.9184C273.937 20.0646 273.655 20.3571 273.514 20.7957C273.374 21.1612 273.303 21.5998 273.303 22.1115V43.896C273.303 44.4077 273.374 44.8463 273.514 45.1387C273.655 45.5043 274.007 45.7967 274.429 46.016C274.64 46.1622 275.133 46.3084 275.766 46.3815C276.399 46.5277 276.892 46.6008 277.243 46.6008V48.209H277.314Z"
			fill="currentColor"
		/>
		<path
			d="M296.099 43.3114C295.255 44.9927 294.129 46.3086 292.722 47.332C291.315 48.3554 289.697 48.794 287.797 48.794C286.179 48.794 284.772 48.5016 283.505 47.9168C282.309 47.332 281.254 46.5279 280.48 45.5044C279.706 44.481 279.073 43.3114 278.721 41.9224C278.299 40.5335 278.158 39.1445 278.158 37.6094C278.158 36.2204 278.369 34.9046 278.791 33.5888C279.214 32.2729 279.847 31.1033 280.621 30.0067C281.395 28.9833 282.38 28.1792 283.505 27.5944C284.631 27.0096 285.968 26.644 287.375 26.644C288.852 26.644 290.119 26.8633 291.174 27.3751C292.23 27.8868 293.074 28.5447 293.707 29.3488C294.34 30.153 294.833 31.1033 295.114 32.1267C295.396 33.2233 295.607 34.3929 295.607 35.6356V37.0246H282.239C282.239 38.4135 282.38 39.6562 282.591 40.7528C282.872 41.8493 283.224 42.8728 283.787 43.75C284.35 44.5541 284.983 45.212 285.897 45.7237C286.742 46.2355 287.797 46.4548 288.993 46.4548C290.189 46.4548 291.245 46.1624 292.159 45.5775C293.074 44.9927 293.918 43.8962 294.692 42.361L296.099 43.3114ZM291.596 35.2701C291.596 34.466 291.526 33.6619 291.385 32.7115C291.245 31.8343 291.034 31.0302 290.752 30.4454C290.471 29.7874 289.978 29.2757 289.486 28.8371C288.923 28.3985 288.219 28.2523 287.375 28.2523C285.968 28.2523 284.772 28.8371 283.787 30.0798C282.802 31.3226 282.309 33.077 282.239 35.2701H291.596Z"
			fill="currentColor"
		/>
		<path
			d="M320.582 47.8437L313.476 48.2823L313.195 47.9899V46.0892L313.054 46.0161C312.351 46.8202 311.436 47.5513 310.451 48.063C309.396 48.5747 308.34 48.8671 307.214 48.8671C306.089 48.8671 304.963 48.5747 303.908 48.063C302.852 47.5513 301.938 46.7471 301.093 45.7968C300.32 44.8465 299.616 43.6037 299.194 42.2879C298.701 40.8989 298.49 39.3638 298.49 37.7555C298.49 36.2204 298.772 34.7583 299.264 33.4425C299.757 32.0536 300.46 30.8839 301.375 29.8605C302.219 28.9102 303.204 28.1791 304.4 27.5943C305.596 27.0095 306.863 26.7171 308.129 26.7171C309.044 26.7171 310.029 26.8633 310.873 27.0826C311.788 27.3019 312.562 27.6674 313.195 28.0329V20.7227C313.195 20.1379 313.124 19.5531 312.913 19.1144C312.702 18.6027 312.421 18.2372 312.139 18.0179C311.788 17.7255 311.225 17.5793 310.592 17.4331C309.958 17.2869 309.255 17.2138 308.481 17.1407V15.8248L316.783 15.3862L317.064 15.6786V43.8961C317.064 44.4079 317.135 44.8465 317.346 45.1389C317.557 45.5044 317.768 45.7968 318.19 46.0161C318.472 46.1623 318.823 46.3085 319.316 46.3085C319.808 46.3816 320.231 46.3816 320.653 46.3816V47.8437H320.582ZM313.195 44.1885V31.8343C313.054 31.4687 312.913 31.1032 312.632 30.6646C312.351 30.226 312.069 29.8605 311.717 29.495C311.295 29.1295 310.873 28.8371 310.31 28.6177C309.747 28.3984 309.184 28.2522 308.481 28.2522C307.637 28.2522 306.933 28.4715 306.229 28.9102C305.526 29.3488 304.963 30.0067 304.4 30.8108C303.908 31.6149 303.486 32.6384 303.204 33.8811C302.923 35.1239 302.782 36.4397 302.782 37.9748C302.782 39.1445 302.923 40.241 303.134 41.1914C303.345 42.1417 303.697 43.092 304.26 43.8961C304.752 44.7003 305.315 45.3582 306.089 45.7968C306.863 46.3085 307.707 46.5278 308.762 46.5278C309.818 46.5278 310.732 46.3085 311.506 45.7968C312.069 45.2851 312.702 44.7734 313.195 44.1885Z"
			fill="currentColor"
		/>
		<path
			d="M332.333 48.2092H322.553V46.8202C322.835 46.8202 323.186 46.7471 323.538 46.7471C323.89 46.7471 324.171 46.674 324.382 46.6009C324.734 46.4547 325.016 46.2354 325.227 45.943C325.438 45.6506 325.508 45.212 325.508 44.7003V31.6881C325.508 31.2494 325.438 30.8108 325.227 30.4453C325.016 30.0798 324.734 29.7874 324.382 29.495C324.101 29.3488 323.749 29.2026 323.257 29.0564C322.764 28.9102 322.342 28.8371 321.92 28.8371V27.4481L329.026 27.0095L329.307 27.3019V44.4079C329.307 44.9196 329.378 45.2851 329.589 45.6506C329.8 45.943 330.081 46.2354 330.433 46.3816C330.715 46.5278 330.996 46.6009 331.277 46.674C331.559 46.7471 331.911 46.8202 332.262 46.8202V48.2092H332.333ZM329.8 18.6758C329.8 19.48 329.518 20.211 329.026 20.7958C328.533 21.3806 327.9 21.673 327.126 21.673C326.423 21.673 325.86 21.3806 325.297 20.7958C324.805 20.211 324.523 19.5531 324.523 18.822C324.523 18.0179 324.805 17.36 325.297 16.7752C325.79 16.1904 326.423 15.8979 327.126 15.8979C327.9 15.8979 328.533 16.1904 329.026 16.7021C329.589 17.2869 329.8 17.9448 329.8 18.6758Z"
			fill="currentColor"
		/>
		<path
			d="M354.002 47.8438C353.369 48.0631 352.806 48.2824 352.314 48.4286C351.821 48.5748 351.258 48.6479 350.695 48.6479C349.64 48.6479 348.796 48.3555 348.163 47.8438C347.529 47.3321 347.107 46.601 346.966 45.5776H346.826C345.911 46.601 344.996 47.4052 343.941 47.9169C342.956 48.4286 341.69 48.721 340.283 48.721C338.735 48.721 337.539 48.2093 336.554 47.259C335.569 46.3086 335.076 45.0659 335.076 43.4576C335.076 42.6535 335.217 41.9225 335.428 41.2646C335.639 40.6067 335.991 40.0218 336.413 39.5101C336.765 39.0715 337.187 38.706 337.75 38.3405C338.313 37.975 338.805 37.7557 339.298 37.5364C339.931 37.3171 341.197 36.8784 343.026 36.2205C344.926 35.5626 346.193 35.0509 346.826 34.6854V32.5654C346.826 32.3461 346.755 32.0537 346.685 31.4689C346.615 30.9571 346.474 30.4454 346.193 30.0068C345.911 29.4951 345.559 29.0565 345.067 28.6179C344.574 28.2524 343.871 28.0331 342.956 28.0331C342.323 28.0331 341.76 28.1062 341.197 28.3986C340.634 28.6179 340.283 28.8372 340.072 29.0565C340.072 29.3489 340.142 29.7875 340.283 30.2992C340.423 30.884 340.494 31.3958 340.494 31.8344C340.494 32.3461 340.283 32.7847 339.86 33.2233C339.438 33.6619 338.805 33.8081 338.102 33.8081C337.398 33.8081 336.905 33.5888 336.624 33.0771C336.272 32.5654 336.132 31.9806 336.132 31.3958C336.132 30.7378 336.343 30.153 336.765 29.4951C337.187 28.9103 337.82 28.3986 338.524 27.8869C339.157 27.5213 339.86 27.1558 340.775 26.8634C341.619 26.571 342.534 26.4248 343.308 26.4248C344.434 26.4248 345.489 26.4979 346.333 26.6441C347.178 26.7903 347.951 27.1558 348.655 27.6675C349.359 28.1793 349.851 28.9103 350.273 29.7875C350.625 30.6647 350.836 31.8344 350.836 33.2964C350.836 35.3433 350.836 37.0977 350.766 38.706C350.695 40.2411 350.695 41.9956 350.695 43.8232C350.695 44.408 350.766 44.8466 350.977 45.139C351.188 45.4314 351.469 45.7238 351.821 45.9431C352.032 46.0893 352.384 46.1624 352.806 46.1624C353.228 46.1624 353.721 46.1624 354.143 46.1624V47.8438H354.002ZM346.896 36.586C345.7 36.9515 344.715 37.3171 343.871 37.6095C343.026 37.975 342.182 38.4136 341.408 38.9253C340.705 39.437 340.212 39.9487 339.79 40.6798C339.368 41.3377 339.227 42.1418 339.227 43.019C339.227 44.1887 339.509 45.0659 340.142 45.6507C340.705 46.2355 341.479 46.4548 342.393 46.4548C343.378 46.4548 344.223 46.2355 344.926 45.7238C345.63 45.2121 346.263 44.6273 346.826 43.9694L346.896 36.586Z"
			fill="currentColor"
		/>
		<path
			d="M119.854 6.39465C119.854 3.98227 118.658 2.15472 116.688 2.15472C116.407 2.15472 115.985 2.15472 115.703 2.15472V9.46495C115.773 10.1229 116.125 10.4153 116.97 10.4153C119.01 10.5615 119.854 8.80702 119.854 6.39465ZM112.678 10.6346C112.959 10.6346 113.452 10.5615 113.592 10.4884C113.874 10.3422 114.015 10.1229 114.015 9.83046V3.03194C114.015 2.73953 113.944 2.52023 113.592 2.37402C113.311 2.22782 112.959 2.15472 112.678 2.15472V1.8623H116.899C118.728 1.8623 121.754 2.81263 121.754 6.46775C121.754 9.61115 119.221 11.0001 116.688 11.0001H112.678V10.6346Z"
			fill="currentColor"
		/>
		<path
			d="M128.719 6.1021C129.845 6.1021 130.83 5.66348 130.83 4.12833C130.83 2.66629 130.056 2.22768 129.001 2.22768H128.156V6.1752H128.719V6.1021ZM130.689 8.87998C130.548 7.63725 130.267 6.54071 128.93 6.54071H128.156V9.83032C128.156 10.1227 128.227 10.342 128.508 10.4882C128.649 10.5613 129.212 10.6344 129.423 10.7075V11H125.061V10.7075C125.272 10.7075 125.834 10.6344 126.046 10.5613C126.327 10.4151 126.468 10.1958 126.468 9.90342V2.9587C126.468 2.66629 126.397 2.37388 126.046 2.30078C125.834 2.22767 125.342 2.08147 125.061 2.08147V1.78906H129.634C131.252 1.78906 132.659 2.37388 132.659 3.83593C132.659 5.29797 131.322 5.88279 130.267 6.1752V6.2483C130.9 6.3214 131.885 6.68692 132.167 7.63725C132.378 8.36827 132.448 8.95309 132.589 9.61101C132.729 10.1227 133.011 10.2689 133.222 10.2689C133.574 10.2689 133.855 9.90342 133.855 9.02619V8.80688H134.207V9.09929C134.207 10.2689 133.714 11.0731 132.448 11.0731C131.393 11.0731 130.9 10.4151 130.689 8.87998Z"
			fill="currentColor"
		/>
		<path
			d="M137.092 10.6346C137.303 10.6346 137.936 10.5615 138.077 10.4884C138.358 10.3422 138.499 10.1229 138.499 9.83046V3.03194C138.499 2.73953 138.429 2.52023 138.077 2.37402C137.866 2.30092 137.303 2.15472 137.092 2.15472V1.8623H144.409V4.05537H144.057C143.916 3.47056 143.213 2.37402 142.65 2.30092C142.369 2.22782 142.017 2.22782 141.595 2.22782H140.258V6.02914H141.243C141.946 6.02914 142.157 5.80983 142.369 5.66363C142.58 5.44432 142.791 4.7864 142.791 4.42089H143.142V8.076H142.791C142.72 7.71049 142.509 6.97947 142.369 6.76016C142.157 6.54085 141.946 6.39465 141.243 6.39465H140.258V9.31874C140.258 10.3422 140.469 10.4884 141.735 10.4884C142.58 10.4884 143.424 10.4884 143.705 10.196C144.127 9.75736 144.62 8.66082 144.831 8.22221H145.183L145.042 10.927H137.233V10.6346H137.092Z"
			fill="currentColor"
		/>
		<path
			d="M154.891 2.66643C154.891 2.30092 154.328 2.15472 153.625 2.15472V1.8623H157.283V2.15472C157.002 2.15472 156.65 2.22782 156.369 2.37402C155.876 2.59333 155.524 2.95884 155.243 3.32435C154.539 4.20158 153.836 5.15191 153.273 5.88293C153.906 6.83326 155.384 9.02633 155.736 9.53805C156.017 9.90356 156.228 10.2691 156.721 10.4884C156.932 10.5615 157.354 10.6346 157.635 10.7077V11.0001H152.57V10.7077C153.343 10.6346 153.906 10.5615 153.906 10.196C153.906 9.83046 153.062 8.58772 152.077 7.12567C151.514 7.8567 150.037 9.75736 150.037 10.196C150.037 10.5615 150.6 10.7077 151.303 10.7808V11.0732H147.645V10.7808C147.926 10.7808 148.278 10.7077 148.559 10.5615C149.052 10.3422 149.403 9.97666 149.685 9.61115C150.459 8.58772 151.233 7.56429 151.866 6.76016C151.022 5.51742 150.177 4.20158 149.615 3.32435C149.333 2.88574 149.122 2.59333 148.63 2.37402C148.418 2.30092 147.996 2.22782 147.715 2.15472V1.8623H152.71V2.15472C151.936 2.22782 151.373 2.30092 151.373 2.66643C151.373 3.17815 152.429 4.64019 152.992 5.44432C153.695 4.64019 154.891 3.03194 154.891 2.66643Z"
			fill="currentColor"
		/>
		<path
			d="M160.381 10.6346C160.592 10.6346 161.225 10.5615 161.366 10.4884C161.647 10.3422 161.788 10.1229 161.788 9.83046V3.03194C161.788 2.73953 161.718 2.52023 161.366 2.37402C161.155 2.30092 160.592 2.15472 160.381 2.15472V1.8623H167.698V4.05537H167.346C167.205 3.47056 166.502 2.37402 165.939 2.30092C165.658 2.22782 165.306 2.22782 164.884 2.22782H163.547V6.02914H164.532C165.235 6.02914 165.447 5.80983 165.658 5.66363C165.869 5.44432 166.08 4.7864 166.08 4.42089H166.432V8.076H166.08C166.009 7.71049 165.798 6.97947 165.658 6.76016C165.447 6.54085 165.235 6.39465 164.532 6.39465H163.547V9.31874C163.547 10.3422 163.758 10.4884 165.024 10.4884C165.869 10.4884 166.713 10.4884 166.994 10.196C167.417 9.75736 167.909 8.66082 168.12 8.22221H168.472L168.331 10.927H160.522V10.6346H160.381Z"
			fill="currentColor"
		/>
		<path
			d="M171.496 10.6346C171.707 10.6346 172.27 10.5615 172.481 10.4884C172.763 10.3422 172.903 10.1229 172.903 9.83046V3.03194C172.903 2.73953 172.833 2.52023 172.481 2.37402C172.27 2.30092 171.778 2.15472 171.496 2.15472V1.8623H175.858V2.15472C175.647 2.15472 175.155 2.22782 174.944 2.37402C174.592 2.44712 174.521 2.73953 174.521 3.03194V9.39184C174.521 10.4884 174.733 10.5615 175.999 10.5615C176.702 10.5615 177.476 10.4884 177.758 10.196C178.11 9.75736 178.743 8.73392 178.884 8.22221H179.165L178.954 10.927H171.496V10.6346Z"
			fill="currentColor"
		/>
		<path
			d="M188.663 8.22227V2.95891C188.663 2.6665 188.593 2.44719 188.241 2.30099C188.03 2.15478 187.537 2.08168 187.326 2.08168V1.78927H191.618V2.08168C191.407 2.08168 190.914 2.15478 190.703 2.22788C190.352 2.30099 190.281 2.5934 190.281 2.88581V8.00297C190.281 9.39191 190.774 10.4153 192.462 10.4153C194.221 10.4153 194.854 9.1726 194.854 7.92986V4.20165C194.854 3.17821 194.714 2.5934 194.432 2.37409C194.151 2.15478 193.447 2.00858 193.166 1.93547V1.64307H196.965V1.93547C196.754 1.93547 196.05 2.08168 195.769 2.30099C195.417 2.52029 195.347 3.17821 195.347 4.12854V8.07607C195.347 10.2691 193.588 11.0733 192.04 11.0733C189.859 11.1464 188.663 9.90363 188.663 8.22227Z"
			fill="currentColor"
		/>
		<path
			d="M201.82 3.68986V8.36841C201.82 9.39184 201.96 9.97666 202.242 10.196C202.453 10.4153 203.297 10.5615 203.508 10.6346V10.927H199.709V10.6346C199.92 10.6346 200.694 10.4153 200.905 10.2691C201.187 10.0498 201.327 9.46494 201.327 8.44151V3.76296C201.327 3.39745 201.187 2.95884 200.905 2.73953C200.624 2.44712 199.99 2.22782 199.639 2.15472V1.8623H202.523L207.519 8.51461V4.42089C207.519 3.39745 207.378 2.81263 207.097 2.59333C206.885 2.44712 206.111 2.22782 205.83 2.15472V1.8623H209.629V2.15472C209.418 2.15472 208.715 2.30092 208.433 2.52023C208.152 2.73953 208.011 3.39745 208.011 4.34778V11.0001H207.378L201.82 3.68986Z"
			fill="currentColor"
		/>
		<path
			d="M212.514 10.6344C212.725 10.6344 213.288 10.5613 213.428 10.4882C213.71 10.342 213.85 10.1227 213.85 9.83032V2.9587C213.85 2.66629 213.78 2.44698 213.428 2.30078C213.217 2.22767 212.725 2.08147 212.514 2.08147V1.78906H216.876V2.08147C216.665 2.08147 216.172 2.15457 215.961 2.30078C215.68 2.37388 215.609 2.66629 215.609 2.9587V9.83032C215.609 10.1227 215.68 10.342 215.961 10.4882C216.102 10.5613 216.665 10.7075 216.876 10.7075V11H212.514V10.6344Z"
			fill="currentColor"
		/>
		<path
			d="M220.888 3.10504C220.747 2.73953 220.677 2.59333 220.325 2.37402C220.114 2.22782 219.762 2.15472 219.48 2.15472V1.8623H223.843V2.15472C223.139 2.22782 222.647 2.37402 222.647 2.66643C222.647 2.73953 222.647 2.88574 222.717 3.03194C222.858 3.47055 223.983 6.76016 224.757 9.02633C225.32 7.63739 226.164 5.51742 226.375 4.8595C226.727 3.90917 227.009 3.32435 227.009 2.88574C227.009 2.52023 226.164 2.22782 225.531 2.22782V1.93541H228.979V2.22782C228.768 2.22782 228.345 2.37402 228.134 2.52023C227.783 2.73953 227.642 3.10504 227.431 3.54366C227.009 4.49399 225.109 9.24564 224.405 11.1463H223.702C222.717 8.44151 221.239 3.98227 220.888 3.10504Z"
			fill="currentColor"
		/>
		<path
			d="M231.369 10.6346C231.58 10.6346 232.213 10.5615 232.354 10.4884C232.636 10.3422 232.776 10.1229 232.776 9.83046V3.03194C232.776 2.73953 232.706 2.52023 232.354 2.37402C232.143 2.30092 231.58 2.15472 231.369 2.15472V1.8623H238.686V4.05537H238.334C238.194 3.47056 237.49 2.37402 236.927 2.30092C236.646 2.22782 236.294 2.22782 235.872 2.22782H234.535V6.02914H235.52C236.224 6.02914 236.435 5.80983 236.646 5.66363C236.857 5.44432 237.068 4.7864 237.068 4.42089H237.42V8.076H237.068C236.998 7.71049 236.787 6.97947 236.646 6.76016C236.435 6.54085 236.224 6.39465 235.52 6.39465H234.535V9.31874C234.535 10.3422 234.746 10.4884 236.013 10.4884C236.857 10.4884 237.701 10.4884 237.983 10.196C238.405 9.75736 238.897 8.66082 239.108 8.22221H239.46L239.319 10.927H231.51V10.6346H231.369Z"
			fill="currentColor"
		/>
		<path
			d="M246.075 6.1021C247.2 6.1021 248.185 5.66348 248.185 4.12833C248.185 2.66629 247.411 2.22768 246.356 2.22768H245.512V6.1752H246.075V6.1021ZM248.045 8.87998C247.904 7.63725 247.622 6.54071 246.286 6.54071H245.512V9.83032C245.512 10.1227 245.582 10.342 245.864 10.4882C246.004 10.5613 246.567 10.6344 246.778 10.7075V11H242.416V10.7075C242.627 10.7075 243.19 10.6344 243.331 10.5613C243.612 10.4151 243.753 10.1958 243.753 9.90342V2.9587C243.753 2.66629 243.682 2.37388 243.331 2.30078C243.12 2.22767 242.627 2.08147 242.416 2.08147V1.78906H246.989C248.607 1.78906 250.015 2.37388 250.015 3.83593C250.015 5.29797 248.678 5.88279 247.622 6.1752V6.2483C248.256 6.3214 249.241 6.68692 249.522 7.63725C249.733 8.36827 249.803 8.95309 249.944 9.61101C250.085 10.1227 250.366 10.2689 250.577 10.2689C250.929 10.2689 251.211 9.90342 251.211 9.02619V8.80688H251.562V9.09929C251.562 10.2689 251.07 11.0731 249.803 11.0731C248.748 11.0731 248.185 10.4151 248.045 8.87998Z"
			fill="currentColor"
		/>
		<path
			d="M255.503 10.4151L255.08 10.9999H254.658L254.588 7.78338H254.869C255.362 9.17232 256.276 10.6344 257.754 10.6344C258.809 10.6344 259.372 9.97645 259.372 8.95302C259.372 8.14889 258.88 7.63718 258.035 7.27167C257.402 7.05236 256.839 6.83305 256.276 6.54064C255.221 6.10203 254.729 5.2248 254.729 4.05516C254.729 2.59312 255.854 1.49658 257.473 1.49658C258.246 1.49658 259.02 1.78899 259.513 2.1545L259.865 1.56968H260.287L260.357 4.63998H260.146C259.583 2.95863 258.809 1.93519 257.473 1.93519C256.839 1.93519 256.136 2.44691 256.136 3.32414C256.136 4.12827 256.558 4.56688 257.402 5.00549C258.035 5.2979 258.598 5.44411 259.091 5.66341C260.146 6.17513 260.85 6.75995 260.85 8.14889C260.85 9.75714 259.583 10.9999 257.754 10.9999C256.628 11.1461 255.925 10.7075 255.503 10.4151Z"
			fill="currentColor"
		/>
		<path
			d="M264.227 10.6344C264.438 10.6344 265.001 10.5613 265.141 10.4882C265.423 10.342 265.563 10.1227 265.563 9.83032V2.9587C265.563 2.66629 265.493 2.44698 265.141 2.30078C264.93 2.22767 264.438 2.08147 264.227 2.08147V1.78906H268.589V2.08147C268.378 2.08147 267.885 2.15457 267.674 2.30078C267.393 2.37388 267.322 2.66629 267.322 2.9587V9.83032C267.322 10.1227 267.393 10.342 267.674 10.4882C267.815 10.5613 268.378 10.7075 268.589 10.7075V11H264.227V10.6344Z"
			fill="currentColor"
		/>
		<path
			d="M273.374 10.6346C273.585 10.6346 274.218 10.5615 274.429 10.4884C274.711 10.3422 274.852 10.1229 274.852 9.83046V2.22782H274.429C274.148 2.22782 273.726 2.22782 273.444 2.30092C272.882 2.37402 272.178 3.68986 272.037 4.27468H271.686V1.8623H279.706V4.27468H279.354C279.214 3.68986 278.51 2.37402 277.947 2.30092C277.666 2.22782 277.314 2.22782 276.962 2.22782H276.54V9.75735C276.54 10.0498 276.611 10.2691 276.962 10.4153C277.103 10.4884 277.736 10.6346 278.018 10.6346V10.927H273.444V10.6346H273.374Z"
			fill="currentColor"
		/>
		<path
			d="M284.068 10.6346C284.279 10.6346 284.982 10.5615 285.123 10.4884C285.405 10.3422 285.545 10.1229 285.545 9.83046V7.71049C285.545 7.27188 285.475 7.05257 285.194 6.54085C284.701 5.59052 283.927 3.98227 283.505 3.25125C283.294 2.88574 283.012 2.52023 282.731 2.37402C282.52 2.22782 282.168 2.15472 281.887 2.15472V1.8623H286.39V2.15472C285.967 2.15472 285.123 2.30092 285.123 2.59333C285.123 2.73953 286.108 4.7864 287.093 6.54085C287.656 5.59052 289.133 3.03194 289.133 2.73953C289.133 2.37402 288.43 2.15472 287.797 2.15472V1.8623H291.103V2.15472C290.892 2.15472 290.541 2.30092 290.33 2.44712C289.978 2.66643 289.767 2.88574 289.556 3.25125C289.133 3.83607 288.219 5.51742 287.656 6.54085C287.304 7.19877 287.234 7.56428 287.234 8.1491V9.83046C287.234 10.1229 287.304 10.3422 287.656 10.4884C287.797 10.5615 288.43 10.7077 288.711 10.7077V11.0001H284.068V10.6346Z"
			fill="currentColor"
		/>
		<path
			d="M184.021 74.5257C181.066 74.5257 179.025 72.4058 179.025 69.1162C179.025 65.8997 181.277 63.4873 184.302 63.4873C185.146 63.4873 186.131 63.9259 186.554 64.3645L186.976 63.5604H187.609L187.679 67.4348H187.327C186.765 65.6073 185.78 63.999 183.81 63.999C182.262 63.999 180.784 65.5342 180.784 69.1162C180.784 71.9672 182.403 73.8678 184.372 73.8678C186.202 73.8678 187.046 72.9175 187.609 71.5286L188.031 71.7479C187.539 73.0637 186.342 74.5257 184.021 74.5257Z"
			fill="currentColor"
		/>
		<path
			d="M191.971 67.4348C190.423 67.4348 190.001 69.2624 190.001 70.7245C190.001 72.552 190.564 74.2334 191.971 74.2334C193.308 74.2334 193.871 72.6251 193.871 70.7976C193.871 69.1162 193.448 67.4348 191.971 67.4348ZM191.901 74.5258C190.071 74.5258 188.523 73.1368 188.523 70.7976C188.523 68.6045 189.931 67.0693 192.041 67.0693C194.152 67.0693 195.489 68.6776 195.489 70.7245C195.418 72.7713 194.152 74.5258 191.901 74.5258Z"
			fill="currentColor"
		/>
		<path
			d="M195.348 74.3065V74.0141C195.629 74.0141 195.77 73.941 195.981 73.8679C196.263 73.7948 196.403 73.5024 196.403 73.1369V64.3646C196.403 63.9991 196.263 63.6336 195.981 63.4874C195.77 63.3412 195.207 63.195 194.926 63.195V62.9026L197.67 62.7563L197.74 62.8294V73.1369C197.74 73.5024 197.881 73.7217 198.162 73.8679C198.373 74.0141 198.584 74.0141 198.795 74.0872V74.3796H195.348V74.3065Z"
			fill="currentColor"
		/>
		<path
			d="M199.217 74.3065V74.0141C199.498 74.0141 199.639 73.941 199.85 73.8679C200.132 73.7948 200.272 73.5024 200.272 73.1369V64.3646C200.272 63.9991 200.132 63.6336 199.85 63.4874C199.639 63.3412 199.076 63.195 198.795 63.195V62.9026L201.539 62.7563L201.609 62.8294V73.1369C201.609 73.5024 201.75 73.7217 202.031 73.8679C202.242 74.0141 202.453 74.0141 202.665 74.0872V74.3796H199.217V74.3065Z"
			fill="currentColor"
		/>
		<path
			d="M205.83 67.4348C204.915 67.4348 204.212 68.3852 204.212 69.8472H207.237C207.167 68.6776 206.956 67.4348 205.83 67.4348ZM205.971 74.5258C203.719 74.5258 202.664 72.8444 202.664 70.7245C202.664 68.8238 203.79 67.0693 205.83 67.0693C207.87 67.0693 208.644 68.4583 208.644 70.0665V70.2127H204.142V70.3589C204.142 72.4058 204.775 73.7947 206.393 73.7947C207.589 73.7947 207.941 73.3561 208.504 72.4058L208.785 72.6251C208.222 73.7217 207.237 74.5258 205.971 74.5258Z"
			fill="currentColor"
		/>
		<path
			d="M212.092 67.4348C211.107 67.4348 210.896 68.3121 210.896 69.3355C210.896 70.432 211.388 71.3093 212.162 71.3093C213.077 71.3093 213.429 70.432 213.429 69.4086C213.358 68.3852 213.006 67.4348 212.092 67.4348ZM214.062 74.5258C213.71 74.4527 213.077 74.3796 211.74 74.3796C210.685 74.5989 210.262 75.0375 210.262 75.9878C210.262 76.6457 210.825 77.3768 212.514 77.3768C213.991 77.3768 214.836 76.7919 214.836 75.5492C214.836 75.2568 214.765 74.7451 214.062 74.5258ZM215.75 68.6045C215.258 68.6045 215.117 68.239 215.117 67.581C214.625 67.581 214.414 67.6542 214.202 67.8735V67.9466C214.554 68.3852 214.765 68.97 214.765 69.4086C214.765 70.7976 213.429 71.6017 212.232 71.6017H211.388C211.107 71.7479 210.896 71.8941 210.896 72.2596C210.896 72.9906 211.74 72.9906 212.514 72.9906C212.936 72.9906 213.851 73.0637 214.202 73.0637C215.117 73.1368 216.102 73.8679 216.102 75.1837C216.102 76.6457 214.906 77.7423 212.303 77.7423C209.911 77.7423 209.066 77.0113 209.066 75.8416C209.066 74.9644 209.84 74.2334 211.459 74.1603V74.0872C210.896 73.941 209.911 73.5754 209.911 72.6982C209.911 71.9672 210.755 71.6017 211.247 71.4555V71.3824C210.192 70.9438 209.559 70.2127 209.559 69.3355C209.559 67.8735 210.755 67.0693 212.232 67.0693C213.288 67.0693 214.062 67.508 214.273 67.508C214.836 67.1424 215.117 67.0693 215.821 67.0693C216.172 67.0693 216.524 67.3617 216.524 67.8004C216.384 68.239 216.172 68.6045 215.75 68.6045Z"
			fill="currentColor"
		/>
		<path
			d="M219.621 67.4348C218.706 67.4348 218.003 68.3852 218.003 69.8472H221.028C220.958 68.6776 220.747 67.4348 219.621 67.4348ZM219.762 74.5258C217.51 74.5258 216.455 72.8444 216.455 70.7245C216.455 68.8238 217.581 67.0693 219.621 67.0693C221.661 67.0693 222.435 68.4583 222.435 70.0665V70.2127H217.933V70.3589C217.933 72.4058 218.566 73.7947 220.184 73.7947C221.38 73.7947 221.732 73.3561 222.295 72.4058L222.576 72.6251C222.084 73.7217 221.028 74.5258 219.762 74.5258Z"
			fill="currentColor"
		/>
		<path
			d="M229.752 67.4348C228.204 67.4348 227.782 69.2624 227.782 70.7245C227.782 72.552 228.345 74.2334 229.752 74.2334C231.089 74.2334 231.652 72.6251 231.652 70.7976C231.652 69.1162 231.159 67.4348 229.752 67.4348ZM229.612 74.5258C227.782 74.5258 226.234 73.1368 226.234 70.7976C226.234 68.6045 227.642 67.0693 229.752 67.0693C231.863 67.0693 233.2 68.6776 233.2 70.7245C233.2 72.7713 231.933 74.5258 229.612 74.5258Z"
			fill="currentColor"
		/>
		<path
			d="M238.898 64.8765C238.546 64.8765 238.054 64.7303 238.054 64.1455C238.054 63.9262 238.124 63.6338 238.124 63.3414C238.054 63.1221 237.913 63.049 237.772 63.049C236.858 63.049 236.365 63.9993 236.295 66.3386C236.295 66.5579 236.295 66.9965 236.295 67.2889H238.194V67.9468H236.295V73.1371C236.295 73.4295 236.436 73.7219 236.717 73.8681C236.928 73.9412 237.421 74.0143 237.702 74.0874V74.3798H233.903V74.0874C234.184 74.0874 234.325 74.0143 234.536 74.0143C234.817 73.9412 234.958 73.6488 234.958 73.2833V68.0199H233.41V67.2889H234.958V66.7772C234.958 65.4613 235.239 64.3648 235.943 63.5607C236.576 62.9028 237.35 62.6104 238.124 62.6104C239.25 62.6104 239.742 63.3414 239.742 63.9993C239.742 64.3648 239.461 64.8765 238.898 64.8765Z"
			fill="currentColor"
		/>
		<path
			d="M249.875 74.3067V73.9412C250.156 73.9412 251 73.8681 251.211 73.7219C251.563 73.5026 251.704 73.2833 251.704 72.9178V64.9496L247.834 74.0874H247.482C247.271 73.5026 246.99 72.6254 246.708 71.8944L243.824 65.0958V71.2364C243.824 72.4061 244.035 73.064 244.316 73.3564C244.598 73.5757 245.583 73.795 245.864 73.8681V74.2336H241.361V73.8681C241.643 73.8681 242.417 73.7219 242.768 73.5026C243.12 73.2102 243.261 72.5523 243.261 71.3826V65.6807C243.261 65.0227 243.12 64.6572 242.768 64.4379C242.417 64.1455 241.854 63.9993 241.432 63.9993V63.6338H244.809L248.256 71.6019L251.071 65.0227C251.282 64.4379 251.422 63.8531 251.422 63.7069H254.799V64.0724C254.518 64.0724 253.955 64.2186 253.674 64.2917C253.322 64.4379 253.181 64.7303 253.181 65.0227V72.9909C253.181 73.3564 253.322 73.5757 253.674 73.7219C253.885 73.795 254.518 73.9412 254.799 73.9412V74.3067H249.875Z"
			fill="currentColor"
		/>
		<path
			d="M257.613 67.4348C256.699 67.4348 255.995 68.3852 255.925 69.8472H258.95C258.95 68.6776 258.739 67.4348 257.613 67.4348ZM257.754 74.5258C255.503 74.5258 254.447 72.8444 254.447 70.7245C254.447 68.8238 255.573 67.0693 257.613 67.0693C259.654 67.0693 260.428 68.4583 260.428 70.0665V70.2127H255.925V70.3589C255.925 72.4058 256.558 73.7947 258.176 73.7947C259.372 73.7947 259.724 73.3561 260.287 72.4058L260.568 72.6251C260.005 73.7217 259.02 74.5258 257.754 74.5258Z"
			fill="currentColor"
		/>
		<path
			d="M266.267 68.6776C266.126 68.1659 265.634 67.3618 264.578 67.3618C263.453 67.3618 262.538 68.6776 262.538 70.7976C262.538 72.3328 263.171 73.8679 264.719 73.8679C265.423 73.8679 265.845 73.5024 266.267 73.0638V68.6776ZM266.337 74.3796L266.267 74.2334V73.5755H266.197C265.845 73.941 265.141 74.5258 264.227 74.5258C262.468 74.5258 261.061 73.0638 261.061 70.7245C261.061 68.6045 262.679 67.0694 264.508 67.0694C265.423 67.0694 266.126 67.4349 266.337 67.508V64.4377C266.337 64.1453 266.197 63.7067 265.915 63.5605C265.634 63.3412 265.001 63.2681 264.578 63.195V62.9026L267.533 62.7563L267.604 62.9026V72.9907C267.604 73.2831 267.744 73.5755 268.026 73.7217C268.237 73.8679 268.659 73.941 268.941 73.941V74.2334L266.337 74.3796Z"
			fill="currentColor"
		/>
		<path
			d="M270.841 65.096C270.349 65.096 269.926 64.6574 269.926 64.1456C269.926 63.6339 270.349 63.1953 270.841 63.1953C271.404 63.1953 271.756 63.6339 271.756 64.1456C271.756 64.5843 271.404 65.096 270.841 65.096ZM269.223 74.3069V74.0145C269.504 74.0145 269.645 73.9414 269.856 73.8682C270.137 73.7951 270.278 73.5027 270.278 73.1372V68.7511C270.278 68.4587 270.137 68.1663 269.856 67.947C269.645 67.8008 269.223 67.6546 268.941 67.6546V67.3621L271.474 67.2159L271.615 67.289V73.1372C271.615 73.4296 271.756 73.722 272.037 73.8682C272.248 74.0145 272.53 74.0145 272.67 74.0876V74.38H269.223V74.3069Z"
			fill="currentColor"
		/>
		<path
			d="M274.71 72.6255C274.71 73.5027 275.062 73.8682 275.695 73.8682C276.469 73.8682 276.821 73.5027 277.172 73.0641L277.243 70.3593C275.765 70.7979 274.71 71.2365 274.71 72.6255ZM278.58 74.453C277.876 74.453 277.524 74.1606 277.243 73.4296H277.172C276.61 74.0875 275.836 74.5261 274.921 74.5261C273.866 74.5261 273.162 73.8682 273.162 72.8448C273.162 71.5289 273.866 71.1634 274.64 70.7979C275.484 70.4324 276.539 70.2131 277.172 69.8476V68.9703C277.172 68.6779 277.102 67.3621 275.906 67.3621C275.343 67.3621 275.132 67.7276 274.991 67.8738C274.991 68.0931 275.132 68.4586 275.132 68.8241C275.132 69.1165 274.78 69.4821 274.288 69.4821C273.795 69.4821 273.584 69.0434 273.584 68.6779C273.584 67.7276 274.851 66.9966 275.976 66.9966C277.454 66.9966 278.58 67.2159 278.58 69.3359C278.58 70.7248 278.509 72.3331 278.509 72.8448C278.509 73.0641 278.72 73.6489 279.213 73.6489C279.705 73.6489 279.776 73.0641 279.776 72.4793H280.127C280.127 73.9413 279.494 74.453 278.58 74.453Z"
			fill="currentColor"
		/>
		<path
			d="M287.655 65.6807L286.037 70.0669H289.344L287.655 65.6807ZM288.992 74.3068V73.9413C289.485 73.9413 290.54 73.722 290.54 73.3565C290.54 73.2834 290.54 73.1372 290.47 72.991L289.555 70.5055H285.897C285.615 71.2365 285.404 71.7482 285.263 72.1868C285.123 72.5523 285.123 72.8447 285.123 73.0641C285.123 73.6489 286.319 73.8682 286.811 73.9413V74.3068H282.66V73.9413C282.942 73.9413 283.434 73.7951 283.716 73.6489C284.067 73.4296 284.349 72.991 284.56 72.4061C285.615 69.7014 286.882 66.4117 288.007 63.4146H288.57C290.118 67.4352 291.595 71.3827 292.158 72.8448C292.299 73.1372 292.44 73.3565 292.792 73.5758C293.073 73.722 293.495 73.8682 293.777 73.8682V74.2337H288.992V74.3068Z"
			fill="currentColor"
		/>
		<path
			d="M298.21 69.0434C297.718 69.0434 297.366 68.8241 297.366 68.3124C297.366 68.1662 297.436 68.0199 297.436 67.8006C296.662 67.8006 296.099 68.4586 295.959 68.8241V73.1371C295.959 73.5026 296.099 73.7219 296.381 73.8681C296.662 73.9412 297.084 74.0143 297.366 74.0874V74.3798H293.566V74.0874C293.848 74.0874 293.989 74.0143 294.2 74.0143C294.481 73.9412 294.622 73.6488 294.622 73.2833V68.751C294.622 68.4586 294.481 68.093 294.2 67.9468C293.989 67.8006 293.707 67.7275 293.496 67.7275V67.4351L295.888 67.2889L295.959 67.4351V68.4586C296.592 67.5813 297.366 67.2158 297.999 67.2158C298.491 67.2158 298.914 67.6544 298.914 68.1662C298.984 68.6048 298.703 69.0434 298.21 69.0434Z"
			fill="currentColor"
		/>
		<path
			d="M302.57 74.4529C301.374 74.4529 300.741 73.7218 300.741 72.3329V67.9468H299.334V67.2888H300.811V64.8765H302.148V67.2888H304.189V67.9468H302.148V72.1136C302.148 72.9908 302.359 73.5756 303.274 73.5756C304.048 73.5756 304.118 72.9177 304.189 72.3329H304.54C304.4 73.5025 303.696 74.4529 302.57 74.4529Z"
			fill="currentColor"
		/>
		<path
			d="M307.214 74.5259C306.511 74.5259 305.667 74.1604 305.456 73.868L305.315 74.3797H304.822L304.752 71.9673H305.033C305.174 72.6983 306.089 74.1604 307.285 74.1604C308.34 74.1604 308.692 73.5756 308.692 72.8446C308.692 72.0404 308.129 71.6749 306.933 71.3825C305.948 71.0901 304.893 70.5053 304.893 69.1894C304.893 68.0198 305.737 67.1426 307.144 67.1426C307.707 67.1426 308.34 67.2888 308.692 67.5812L308.833 67.1426H309.325L309.396 69.2625H309.114C308.973 68.3853 308.199 67.5081 307.144 67.5081C306.229 67.5081 305.948 68.0198 305.948 68.6046C305.948 69.4819 306.441 69.7012 307.707 70.0667C308.903 70.5053 309.747 71.0901 309.747 72.3328C309.747 73.7218 308.622 74.5259 307.214 74.5259Z"
			fill="currentColor"
		/>
		<path
			d="M317.135 63.9261C316.15 63.9261 315.939 64.9495 315.939 65.3881C315.939 66.046 316.221 66.777 316.924 67.8005C317.909 67.2157 318.261 66.4846 318.261 65.4612C318.331 64.5109 317.769 63.9261 317.135 63.9261ZM315.799 68.8239C314.884 69.4087 314.603 70.286 314.603 71.3094C314.603 72.5521 315.306 73.5756 316.573 73.5756C317.346 73.5756 318.05 73.2101 318.543 72.6252C317.698 71.4556 316.502 69.8474 315.799 68.8239ZM321.779 68.6777C321.357 69.1894 320.864 70.7246 319.879 71.8942C320.301 72.4059 321.075 73.2101 321.427 73.5025C321.92 73.7949 322.764 74.0142 323.397 74.0142V74.3797H319.879L318.824 73.0638C318.12 73.7949 317.206 74.6721 315.939 74.6721C314.532 74.6721 313.055 73.868 313.055 72.1135C313.055 70.6515 313.899 69.7742 315.588 68.6777C314.814 67.435 314.532 66.777 314.532 65.9729C314.532 64.584 315.728 63.5605 317.135 63.5605C318.472 63.5605 319.035 64.584 319.035 65.6805C319.035 66.6308 318.402 67.5081 317.206 68.2391C318.12 69.628 318.754 70.4322 319.668 71.6749C320.301 70.7246 320.864 69.5549 320.864 68.8239C320.864 68.4584 320.301 68.166 319.528 68.0198V67.7274H323.819V68.0198C322.905 68.0198 322.201 68.166 321.779 68.6777Z"
			fill="currentColor"
		/>
		<path
			d="M331.136 64.0725C330.784 64.0725 330.151 64.0725 329.799 64.0725V72.6255C329.869 73.3565 330.291 73.7951 331.417 73.7951C334.091 73.7951 335.287 71.7483 335.287 68.9704C335.357 66.1925 333.668 64.0725 331.136 64.0725ZM331.276 74.3069H326.703V73.9414C326.985 73.9414 327.618 73.8682 327.829 73.7951C328.181 73.6489 328.321 73.3565 328.321 73.0641V65.096C328.321 64.7305 328.251 64.4381 327.829 64.2919C327.477 64.1456 327.055 64.0725 326.773 64.0725V63.707H331.628C333.668 63.707 337.257 64.8036 337.257 69.1166C337.186 72.6986 334.161 74.3069 331.276 74.3069Z"
			fill="currentColor"
		/>
		<path
			d="M341.057 67.4348C340.142 67.4348 339.438 68.3852 339.438 69.8472H342.464C342.464 68.6776 342.182 67.4348 341.057 67.4348ZM341.268 74.5258C339.016 74.5258 337.961 72.8444 337.961 70.7245C337.961 68.8238 339.087 67.0693 341.127 67.0693C343.167 67.0693 343.941 68.4583 343.941 70.0665V70.2127H339.438V70.3589C339.438 72.4058 340.072 73.7947 341.69 73.7947C342.886 73.7947 343.238 73.3561 343.801 72.4058L344.082 72.6251C343.519 73.7217 342.534 74.5258 341.268 74.5258Z"
			fill="currentColor"
		/>
		<path
			d="M346.966 74.5259C346.263 74.5259 345.419 74.1604 345.207 73.868L345.067 74.3797H344.574L344.504 71.9673H344.785C344.926 72.6983 345.841 74.1604 347.037 74.1604C348.092 74.1604 348.444 73.5756 348.444 72.8446C348.444 72.0404 347.881 71.6749 346.685 71.3825C345.7 71.0901 344.645 70.5053 344.645 69.1894C344.645 68.0198 345.489 67.1426 346.896 67.1426C347.459 67.1426 348.092 67.2888 348.444 67.5812L348.585 67.1426H349.077L349.218 69.2625H348.936C348.796 68.3853 348.022 67.5081 346.966 67.5081C346.052 67.5081 345.77 68.0198 345.77 68.6046C345.77 69.4819 346.263 69.7012 347.529 70.0667C348.725 70.5053 349.57 71.0901 349.57 72.3328C349.499 73.7218 348.374 74.5259 346.966 74.5259Z"
			fill="currentColor"
		/>
		<path
			d="M351.822 65.096C351.329 65.096 350.907 64.6574 350.907 64.1456C350.907 63.6339 351.329 63.1953 351.822 63.1953C352.384 63.1953 352.736 63.6339 352.736 64.1456C352.807 64.5843 352.384 65.096 351.822 65.096ZM350.203 74.3069V74.0145C350.485 74.0145 350.625 73.9414 350.837 73.8682C351.118 73.7951 351.259 73.5027 351.259 73.1372V68.7511C351.259 68.4587 351.118 68.1663 350.837 67.947C350.625 67.8008 350.203 67.6546 349.922 67.6546V67.3621L352.455 67.2159L352.525 67.289V73.1372C352.525 73.4296 352.666 73.722 352.947 73.8682C353.158 74.0145 353.44 74.0145 353.58 74.0876V74.38H350.203V74.3069Z"
			fill="currentColor"
		/>
		<path
			d="M356.465 67.4348C355.48 67.4348 355.269 68.3121 355.269 69.3355C355.269 70.432 355.761 71.3093 356.535 71.3093C357.45 71.3093 357.802 70.432 357.802 69.4086C357.802 68.3852 357.45 67.4348 356.465 67.4348ZM358.505 74.5258C358.153 74.4527 357.52 74.3796 356.183 74.3796C355.128 74.5989 354.706 75.0375 354.706 75.9878C354.706 76.6457 355.269 77.3768 356.957 77.3768C358.435 77.3768 359.279 76.7919 359.279 75.5492C359.209 75.2568 359.209 74.7451 358.505 74.5258ZM360.194 68.6045C359.701 68.6045 359.561 68.239 359.561 67.581C359.068 67.581 358.857 67.6542 358.646 67.8735V67.9466C358.998 68.3852 359.209 68.97 359.209 69.4086C359.209 70.7976 357.872 71.6017 356.676 71.6017H355.832C355.55 71.7479 355.339 71.8941 355.339 72.2596C355.339 72.9906 356.183 72.9906 356.957 72.9906C357.379 72.9906 358.294 73.0637 358.646 73.0637C359.561 73.1368 360.546 73.8679 360.546 75.1837C360.546 76.6457 359.349 77.7423 356.746 77.7423C354.354 77.7423 353.439 77.0113 353.439 75.8416C353.439 74.9644 354.213 74.2334 355.832 74.1603V74.0872C355.269 73.941 354.284 73.5754 354.284 72.6982C354.284 71.9672 355.128 71.6017 355.621 71.4555V71.3824C354.565 70.9438 353.932 70.2127 353.932 69.3355C353.932 67.8735 355.128 67.0693 356.606 67.0693C357.661 67.0693 358.435 67.508 358.646 67.508C359.209 67.1424 359.49 67.0693 360.194 67.0693C360.546 67.0693 360.897 67.3617 360.897 67.8004C360.827 68.239 360.546 68.6045 360.194 68.6045Z"
			fill="currentColor"
		/>
		<path
			d="M365.399 74.3066V74.0142C365.681 74.0142 365.892 73.9411 366.103 73.868C366.384 73.7949 366.525 73.5025 366.525 73.137V69.4087C366.525 68.3122 365.892 67.7274 365.259 67.7274C364.133 67.7274 363.57 68.4584 363.359 68.8239V73.0639C363.359 73.4294 363.5 73.6487 363.781 73.7949C363.992 73.9411 364.203 73.9411 364.485 74.0142V74.3066H360.967V74.0142C361.248 74.0142 361.389 73.9411 361.6 73.868C361.881 73.7949 362.022 73.5025 362.022 73.137V68.7508C362.022 68.4584 361.881 68.0929 361.6 67.9467C361.389 67.8005 361.108 67.7274 360.896 67.7274V67.435L363.289 67.2888L363.359 67.3619V68.4584C363.922 67.8736 364.485 67.1426 365.821 67.1426C367.229 67.1426 367.862 68.0929 367.862 69.6281V73.2101C367.862 73.5756 368.003 73.7949 368.284 73.9411C368.495 74.0142 368.706 74.0873 368.917 74.0873V74.3797H365.399V74.3066Z"
			fill="currentColor"
		/>
		<path d="M107.19 1.56982H106.486V73.5756H107.19V1.56982Z" fill="currentColor" />
		<path
			d="M75.6704 4.27463C77.0775 0.838817 80.6657 0.253998 80.6657 0.253998C77.8514 0.180896 68.9865 1.64294 68.2126 10.7807C67.9311 13.7779 68.9865 16.3365 70.2529 18.4565C68.7754 17.2868 66.9461 15.24 66.6647 12.5352C66.4536 10.3421 67.5794 6.97941 67.5794 6.97941C65.4686 9.61109 63.1469 12.9007 63.6394 17.2868C64.1319 21.4537 66.7351 24.2316 68.5643 26.5708C67.2276 25.9129 66.4536 25.255 65.1872 23.9391C65.6094 28.9101 67.0869 32.7114 70.3936 34.6121C66.1019 34.1735 65.2576 31.0301 64.0615 27.5212C63.2172 25.1088 61.8101 23.7198 60.4733 22.1847C62.5137 22.6233 63.6394 23.9391 64.6244 25.4012C63.9911 21.0882 61.0362 19.2606 56.8148 18.6758C58.5737 16.9944 61.5287 18.6758 62.9358 19.4799C62.9358 19.4799 62.0915 17.7255 61.3176 16.8482C59.2772 14.5821 54.7744 15.0938 52.0305 16.0441C53.0155 14.2896 55.6187 12.9007 57.9405 13.6317C56.5333 12.389 54.7744 11.4387 52.5933 11.2924C48.7941 11 45.628 13.1931 43.7987 14.6552C44.2209 12.0966 46.2612 11.1462 48.0201 10.0497C41.688 8.95317 38.522 13.0469 36.4113 17.1406C36.2002 14.6552 38.3109 11.8042 38.3109 11.8042C30.5716 15.0938 31.6973 24.1585 31.6973 24.1585C30.2902 23.2812 30.2902 19.9185 30.7827 18.3834C30.7827 18.3834 29.2349 20.7226 29.1645 24.0123C29.0941 27.375 31.3456 30.8839 31.3456 30.8839C29.0238 30.5184 27.5463 25.6936 27.5463 25.6936C26.2799 32.4921 31.8381 37.9017 31.8381 37.9017C29.3052 37.6093 27.1945 34.3928 27.1945 34.3928C28.1091 41.1182 33.7377 44.7002 33.7377 44.7002C31.9788 45.0657 29.3756 43.2382 29.3756 43.2382C31.5566 48.3553 34.793 50.8408 34.793 50.8408C32.8231 50.9139 30.7124 48.4284 30.7124 48.4284C30.5013 50.8408 31.8381 53.9842 31.8381 53.9842C29.7977 53.2532 29.2349 50.256 29.2349 50.256C27.5463 52.6684 27.8981 56.2504 27.8981 56.2504C25.9281 54.9345 26.0688 52.0104 26.0688 52.0104C24.1692 53.0339 23.0435 56.9814 23.0435 56.9814C22.0585 54.8614 23.1138 52.3028 23.1138 52.3028C20.4402 53.0339 18.7517 56.2504 18.7517 56.2504C18.611 54.2766 19.807 51.8642 19.807 51.8642C17.6963 51.9373 15.9374 55.0076 15.9374 55.0076C15.5856 52.9608 17.4149 50.6946 17.4149 50.6946C15.0931 50.4753 13.1231 53.0339 13.1231 53.0339C12.8417 50.6946 15.0931 48.9401 15.0931 48.9401C12.6306 48.3553 10.8014 50.6215 10.8014 50.6215C10.4496 48.136 13.0528 46.3816 13.0528 46.3816C11.0828 45.5043 8.97208 47.3319 8.97208 47.3319C8.76101 44.7733 11.4346 43.3844 11.4346 43.3844C9.746 42.2147 7.6353 43.3844 7.6353 43.3844C7.98708 41.3375 10.4496 40.7527 10.4496 40.7527C9.04243 39.0713 6.93173 39.2175 6.93173 39.2175C7.6353 37.39 9.95707 37.6824 9.95707 37.6824C8.83136 36.0741 6.79101 35.4893 6.79101 35.4893C8.05744 34.3928 9.88671 35.1238 9.88671 35.1238C9.39422 33.2962 7.28351 32.2728 7.28351 32.2728C8.90172 31.688 10.4496 32.8576 10.4496 32.8576C10.2385 31.1763 8.54994 29.6411 8.54994 29.6411C10.4496 29.7142 11.716 31.1763 11.716 31.1763C11.716 29.7873 10.8014 28.0329 10.8014 28.0329C12.3492 28.5446 13.686 30.1528 13.686 30.1528C13.8267 28.837 13.4749 28.0329 13.4749 28.0329C16.0078 28.9832 17.626 31.0301 18.9628 33.2231C18.2592 29.1294 15.7967 26.1322 11.8567 25.8398C4.96173 25.255 0.599609 33.3693 0.599609 39.2906C0.599609 46.2354 2.85103 50.8408 5.87637 55.3731C9.32386 60.5634 15.3042 64.584 20.9327 65.8268C19.1738 66.4116 17.4853 67.8736 17.4853 69.6281C20.3699 69.8474 22.762 71.2364 24.0285 72.8446H34.2302C36.6927 72.8446 38.9441 72.7715 39.7884 72.6253C41.688 72.1867 42.5323 67.8005 44.7837 67.8736C47.0351 67.9467 46.3316 71.7481 44.4319 71.8212C43.7987 71.8212 43.5173 71.5288 42.9544 71.3826C44.9948 76.4266 50.9751 70.7246 48.1609 67.2157C51.3973 67.3619 51.1862 71.7481 48.9348 72.1867C52.523 72.5522 53.508 68.824 51.8898 66.1923C50.2716 63.5606 46.9648 63.9992 44.3616 65.3151C41.7584 66.6309 39.3662 67.5812 37.6777 67.8005C36.2705 68.0198 34.9338 67.8736 34.0191 67.3619C31.3456 65.7537 36.1298 62.9758 37.2555 62.2448C41.4769 59.6131 45.9798 56.3966 46.4019 50.1098C46.7537 45.4312 44.9948 42.9457 43.5877 40.0217C42.4619 37.6093 41.1955 35.27 41.0548 32.1266C40.7734 27.8867 43.7987 24.7433 47.3869 24.9626C52.4526 25.1819 55.0558 29.4218 55.4076 34.6852C55.5483 36.8052 55.1262 39.2906 54.9855 41.4106C54.4226 50.1829 58.5033 54.7152 63.0062 58.809C67.1572 62.5372 71.2379 64.9495 76.374 67.2888C76.7257 70.6515 78.6957 74.3797 82.6357 72.6253C84.6761 76.2073 92.1339 75.5494 91.0785 70.286C90.586 67.8005 87.0682 67.5081 87.3496 64.6571C87.4903 63.3413 88.9678 62.6103 90.3046 63.0489C91.7118 63.5606 92.4153 65.8268 92.345 67.435C94.5964 63.5606 92.2746 57.8586 87.6311 58.9552C85.2389 59.54 82.9172 63.853 82.9172 63.853C79.9622 62.1717 77.0775 60.4903 77.0775 60.4903C83.9725 60.1248 88.3346 56.9814 90.8675 52.1566C94.1742 52.9608 96.4257 50.5484 95.5814 47.7705C95.5814 47.7705 98.466 48.7208 98.8178 51.1332C99.1696 53.6187 96.0035 54.1304 94.1742 52.9608C94.1742 52.9608 95.7221 56.7621 98.6067 56.0311C101.491 55.3 101.21 52.0835 100.577 50.7677C99.9435 49.525 97.3403 47.0395 97.9735 45.4312C98.6771 43.823 101.843 44.9195 101.351 49.0863C103.672 45.7236 101.632 40.3872 97.9032 40.3872C95.1592 40.3872 94.0335 42.8726 93.33 45.3581C93.33 45.3581 92.4153 44.9926 91.4303 45.2119C90.8675 41.1182 88.405 38.4865 84.3946 36.8783C80.8064 35.4162 77.359 32.9307 77.0072 28.9101C76.8665 27.0094 77.4293 25.4743 78.7661 24.7433C82.3543 22.8426 84.7464 26.9363 85.3796 29.6411C85.3093 26.4977 86.5054 24.9626 87.8421 23.3543C86.7868 21.4537 84.6761 19.8454 81.7914 20.2109C79.8214 20.5033 77.9218 21.5999 77.9218 21.5999C78.8364 19.4068 80.4547 15.5324 83.9725 15.3862C86.8571 15.24 88.2643 17.8717 89.1086 20.5033C89.601 15.6055 92.1339 12.1697 94.4557 9.61109C91.7118 11.2924 90.3046 7.78354 87.6311 7.78354C83.8318 7.78354 82.0025 12.0966 78.8364 12.5352C77.4997 12.6814 76.5147 11.7311 75.9518 11.2924C75.1075 10.4152 74.2633 7.71043 75.6704 4.27463ZM88.2643 9.31869C89.1789 9.39179 90.1639 9.97661 90.1639 10.7076C90.1639 11.9504 89.0382 12.2428 88.1939 12.0966C87.0682 11.9504 86.5053 11.2924 86.5053 10.5614C86.5053 9.8304 87.3496 9.31869 88.2643 9.31869ZM72.5747 49.2326C71.5897 49.4519 70.3936 49.0132 69.6901 48.4284C67.3683 46.6009 66.3833 41.6299 66.2426 37.7555C67.2276 39.9486 68.8458 43.4575 71.7304 42.5071C72.7154 42.2147 73.9115 40.8258 73.9115 40.8258C74.6854 43.3844 75.4593 48.6477 72.5747 49.2326ZM75.4593 16.8482C74.1225 16.3365 74.5447 12.1697 74.5447 12.1697C74.8261 14.0703 77.0072 15.3862 78.9068 14.2896C78.9068 14.2165 77.0072 17.433 75.4593 16.8482ZM88.3346 71.6019C87.2089 73.5756 84.0429 71.3826 84.0429 71.3826C84.9575 70.6515 85.5204 69.4088 85.7314 67.8736C87.2793 67.9467 89.5307 69.4819 88.3346 71.6019ZM80.8064 68.6778C80.8064 68.6778 80.4547 70.5053 79.4697 69.9936C78.4847 69.4819 78.2032 67.8736 78.2032 67.8736C78.2032 67.8736 79.3993 68.3122 80.8064 68.6778ZM91.2896 50.8408C91.571 49.8905 91.571 48.9401 91.5007 47.8436C93.1189 48.2091 92.9782 50.7677 91.2896 50.8408Z"
			fill="currentColor"
		/>
		<path
			d="M126.679 64.0726C126.539 64.0726 126.398 64.0726 126.257 64.1457C126.117 64.2188 125.976 64.2919 125.835 64.365C125.694 64.5112 125.554 64.5843 125.413 64.7305C125.272 64.8767 125.202 65.096 125.132 65.3154C124.78 66.485 124.358 67.8739 123.935 69.4822C123.443 71.0904 122.95 72.7718 122.458 74.5262H121.754L119.081 66.1195L116.337 74.5262H115.704C115.211 72.6987 114.719 70.8711 114.156 68.9705C113.663 67.0698 113.312 65.754 113.1 65.096C113.03 64.9498 112.96 64.8036 112.889 64.6574C112.819 64.5112 112.678 64.4381 112.538 64.2919C112.397 64.2188 112.256 64.1457 112.116 64.0726C111.975 63.9995 111.834 63.9995 111.693 63.9995V63.4878H115.985V63.9995C115.633 63.9995 115.282 64.0726 115 64.1457C114.719 64.2188 114.578 64.2919 114.578 64.4381C114.578 64.5112 114.578 64.5843 114.578 64.6574C114.578 64.7305 114.578 64.8036 114.648 64.8767C114.789 65.3153 114.93 66.0464 115.282 67.1429C115.563 68.1663 115.985 69.7015 116.548 71.8215L119.151 63.7071H119.855L122.528 71.9677C122.88 70.7249 123.162 69.5553 123.443 68.605C123.724 67.6546 123.935 66.8505 124.076 66.1926C124.217 65.6809 124.287 65.3884 124.287 65.2422C124.287 65.096 124.358 64.9498 124.358 64.8036C124.358 64.6574 124.217 64.5112 124.006 64.365C123.795 64.2188 123.373 64.1457 122.88 64.1457V63.634H126.679V64.0726Z"
			fill="currentColor"
		/>
		<path
			d="M133.504 72.6252C133.223 73.2101 132.801 73.7218 132.308 74.0873C131.816 74.4528 131.182 74.599 130.549 74.599C129.986 74.599 129.423 74.5259 129.001 74.3066C128.579 74.0873 128.227 73.7949 127.876 73.4294C127.594 73.0639 127.383 72.6252 127.242 72.1135C127.102 71.6018 127.031 71.0901 127.031 70.5784C127.031 70.0667 127.102 69.6281 127.242 69.1163C127.383 68.6777 127.594 68.2391 127.876 67.8736C128.157 67.5081 128.509 67.2157 128.931 66.9964C129.353 66.7771 129.846 66.6309 130.338 66.6309C130.901 66.6309 131.323 66.704 131.675 66.9233C132.027 67.0695 132.378 67.3619 132.589 67.6543C132.801 67.9467 133.012 68.3122 133.082 68.6777C133.223 69.0432 133.223 69.4818 133.223 69.9205V70.4322H128.368C128.368 70.9439 128.438 71.3825 128.509 71.8211C128.579 72.2597 128.72 72.5521 128.931 72.9177C129.142 73.2101 129.353 73.4294 129.705 73.6487C129.986 73.7949 130.408 73.9411 130.831 73.9411C131.253 73.9411 131.675 73.868 131.956 73.6487C132.308 73.4294 132.589 73.0639 132.871 72.479L133.504 72.6252ZM131.816 69.7743C131.816 69.4818 131.816 69.1894 131.745 68.8239C131.675 68.5315 131.604 68.2391 131.534 68.0198C131.393 67.8005 131.253 67.5812 131.042 67.435C130.831 67.2888 130.619 67.2157 130.268 67.2157C129.775 67.2157 129.353 67.435 129.001 67.8736C128.649 68.3122 128.438 68.9701 128.438 69.7743H131.816Z"
			fill="currentColor"
		/>
		<path
			d="M139.132 70.7246C139.343 70.9439 139.484 71.0901 139.624 71.3825C139.765 71.6018 139.765 71.8942 139.765 72.2597C139.765 72.9908 139.484 73.5025 138.991 74.0142C138.499 74.4528 137.866 74.6721 137.021 74.6721C136.599 74.6721 136.177 74.599 135.825 74.4528C135.473 74.3066 135.192 74.1604 135.051 74.0142L134.911 74.5259H134.348L134.277 71.8942H134.77C134.84 72.1135 134.911 72.3328 135.051 72.6252C135.192 72.9177 135.333 73.137 135.544 73.3563C135.755 73.5756 135.966 73.7949 136.247 73.9411C136.529 74.0873 136.81 74.1604 137.162 74.1604C137.654 74.1604 138.006 74.0142 138.288 73.7949C138.569 73.5756 138.639 73.2832 138.639 72.8446C138.639 72.6252 138.569 72.479 138.499 72.2597C138.428 72.1135 138.288 71.9673 138.147 71.8211C138.006 71.6749 137.795 71.6018 137.514 71.5287C137.303 71.4556 137.021 71.3094 136.74 71.2363C136.529 71.1632 136.247 71.0901 135.966 70.9439C135.684 70.7977 135.473 70.6515 135.262 70.5053C135.051 70.3591 134.84 70.1398 134.699 69.8474C134.559 69.5549 134.488 69.2625 134.488 68.897C134.488 68.3122 134.699 67.7274 135.122 67.2888C135.544 66.8502 136.177 66.6309 136.881 66.6309C137.162 66.6309 137.443 66.704 137.725 66.7771C138.006 66.8502 138.288 66.9233 138.428 67.0695L138.569 66.704H139.132L139.273 69.1163H138.78C138.71 68.6046 138.428 68.0929 138.077 67.8005C137.725 67.435 137.303 67.2888 136.81 67.2888C136.388 67.2888 136.107 67.3619 135.825 67.5812C135.614 67.8005 135.473 68.0198 135.473 68.3122C135.473 68.5315 135.544 68.7508 135.614 68.897C135.684 69.0432 135.825 69.1894 135.966 69.2625C136.107 69.3356 136.318 69.4818 136.529 69.555C136.74 69.6281 137.021 69.7743 137.373 69.8474C137.725 69.9205 138.006 70.0667 138.288 70.2129C138.71 70.3591 138.921 70.5053 139.132 70.7246Z"
			fill="currentColor"
		/>
		<path
			d="M145.394 74.0871C145.042 74.2334 144.761 74.3065 144.479 74.4527C144.198 74.5258 143.846 74.5989 143.424 74.5989C142.791 74.5989 142.368 74.4527 142.157 74.0871C141.876 73.7947 141.806 73.283 141.806 72.6982V67.581H140.469V66.85H141.806V64.5107H143.142V66.85H145.253V67.581H143.142V71.821C143.142 72.1134 143.142 72.4058 143.142 72.6251C143.142 72.8444 143.213 72.9906 143.283 73.2099C143.353 73.3561 143.494 73.5023 143.635 73.5754C143.776 73.6485 143.987 73.7216 144.268 73.7216C144.409 73.7216 144.549 73.7216 144.831 73.7216C145.042 73.7216 145.253 73.6485 145.323 73.6485V74.0871H145.394Z"
			fill="currentColor"
		/>
		<path
			d="M152.712 67.7276C152.993 68.0931 153.204 68.5317 153.415 68.9703C153.556 69.409 153.626 69.9938 153.626 70.5786C153.626 71.1634 153.556 71.7482 153.345 72.1868C153.134 72.6986 152.923 73.1372 152.571 73.4296C152.219 73.7951 151.867 74.0875 151.445 74.2337C151.023 74.453 150.601 74.5261 150.179 74.5261C149.757 74.5261 149.405 74.453 149.123 74.3799C148.842 74.3068 148.631 74.1606 148.42 74.0144H148.349V76.2806C148.349 76.4999 148.349 76.6461 148.42 76.7192C148.49 76.7923 148.56 76.9385 148.772 77.0116C148.912 77.0847 149.053 77.0847 149.264 77.1578C149.475 77.2309 149.686 77.2309 149.827 77.2309V77.7426H145.746V77.2309C145.887 77.2309 146.028 77.2309 146.168 77.1578C146.309 77.1578 146.45 77.0847 146.52 77.0847C146.661 77.0116 146.802 76.9385 146.802 76.7923C146.872 76.6461 146.872 76.4999 146.872 76.3537V68.3124C146.872 68.1662 146.802 68.02 146.731 67.8738C146.661 67.7276 146.59 67.5814 146.45 67.5083C146.379 67.4352 146.239 67.4352 146.098 67.3621C145.957 67.3621 145.817 67.289 145.605 67.289V66.7773L148.068 66.6311L148.138 66.7042V67.5814H148.209C148.49 67.289 148.772 66.9966 149.194 66.7773C149.545 66.558 149.968 66.4849 150.319 66.4849C150.742 66.4849 151.164 66.558 151.586 66.7773C152.149 67.1428 152.5 67.4352 152.712 67.7276ZM151.515 73.2103C151.727 72.9179 151.867 72.5524 151.938 72.1137C152.008 71.6751 152.078 71.2365 152.078 70.7248C152.078 70.3593 152.008 69.9938 151.938 69.5552C151.867 69.1897 151.727 68.8241 151.586 68.5317C151.445 68.2393 151.234 68.02 150.953 67.8007C150.671 67.5814 150.39 67.5083 149.968 67.5083C149.616 67.5083 149.264 67.5814 149.053 67.7276C148.772 67.8738 148.56 68.0931 148.42 68.3124V72.7717C148.49 72.9179 148.56 73.0641 148.631 73.2103C148.701 73.3565 148.842 73.5027 148.983 73.5758C149.123 73.722 149.334 73.7951 149.475 73.8682C149.686 73.9413 149.897 74.0144 150.108 74.0144C150.39 74.0144 150.671 73.9413 150.882 73.7951C151.164 73.6489 151.375 73.4296 151.515 73.2103Z"
			fill="currentColor"
		/>
		<path
			d="M162.632 74.38H159.044V73.8682C159.185 73.8682 159.255 73.8682 159.396 73.8682C159.537 73.8682 159.677 73.8682 159.748 73.7951C159.888 73.722 159.959 73.6489 160.029 73.5758C160.099 73.4296 160.099 73.2834 160.099 73.1372V69.2628C160.099 68.7511 159.959 68.3125 159.748 68.0201C159.537 67.7277 159.185 67.5814 158.833 67.5814C158.552 67.5814 158.341 67.6546 158.129 67.7277C157.918 67.8008 157.707 67.947 157.567 68.0201C157.426 68.1663 157.285 68.2394 157.215 68.3856C157.144 68.5318 157.074 68.6049 157.004 68.678V73.0641C157.004 73.2103 157.004 73.3565 157.074 73.5027C157.144 73.6489 157.215 73.722 157.356 73.7951C157.496 73.8682 157.567 73.8683 157.707 73.9414C157.848 73.9414 157.918 74.0145 158.059 74.0145V74.5262H154.612V74.0145C154.752 74.0145 154.823 74.0145 154.963 74.0145C155.104 74.0145 155.174 74.0145 155.245 73.9414C155.386 73.8683 155.456 73.7951 155.526 73.722C155.597 73.5758 155.597 73.4296 155.597 73.2834V64.4381C155.597 64.2918 155.526 64.0725 155.456 63.9263C155.386 63.7801 155.245 63.6339 155.174 63.5608C155.104 63.4877 154.963 63.4146 154.682 63.4146C154.471 63.4146 154.26 63.3415 154.119 63.3415V62.8298L156.793 62.6836L156.863 62.8298V68.0932C157.004 67.947 157.144 67.8008 157.285 67.6546C157.426 67.5083 157.567 67.3621 157.778 67.2159C157.989 67.0697 158.2 66.9966 158.411 66.9235C158.692 66.8504 158.974 66.7773 159.255 66.7773C159.888 66.7773 160.381 66.9966 160.733 67.4352C161.084 67.8739 161.225 68.4587 161.225 69.2628V73.2103C161.225 73.3565 161.225 73.5027 161.296 73.6489C161.366 73.7951 161.436 73.8683 161.577 73.9414C161.718 74.0145 161.788 74.0145 161.858 74.0145C161.929 74.0145 162.069 74.0876 162.21 74.0876V74.38H162.632Z"
			fill="currentColor"
		/>
		<path
			d="M170.442 74.3066C170.231 74.3797 170.02 74.4528 169.809 74.5259C169.668 74.599 169.457 74.599 169.246 74.599C168.894 74.599 168.542 74.5259 168.331 74.3066C168.12 74.0873 167.979 73.868 167.909 73.5025H167.839C167.487 73.868 167.205 74.1604 166.783 74.3797C166.432 74.599 165.939 74.6721 165.447 74.6721C164.884 74.6721 164.462 74.5259 164.11 74.1604C163.758 73.7949 163.547 73.3563 163.547 72.7714C163.547 72.479 163.617 72.1866 163.688 71.9673C163.758 71.748 163.899 71.5287 164.039 71.3094C164.18 71.1632 164.321 71.017 164.532 70.8708C164.743 70.7246 164.954 70.6515 165.095 70.5784C165.306 70.5053 165.798 70.3591 166.432 70.0667C167.135 69.8474 167.557 69.628 167.768 69.4818V68.7508C167.768 68.6777 167.768 68.5315 167.698 68.3853C167.698 68.166 167.628 68.0198 167.557 67.8736C167.487 67.6543 167.346 67.5081 167.135 67.3619C166.924 67.2157 166.713 67.1426 166.361 67.1426C166.15 67.1426 165.939 67.2157 165.728 67.2888C165.517 67.3619 165.376 67.435 165.306 67.5081C165.306 67.5812 165.306 67.7274 165.376 67.9467C165.447 68.166 165.447 68.3122 165.447 68.5315C165.447 68.6777 165.376 68.897 165.235 69.0432C165.095 69.1894 164.884 69.2625 164.602 69.2625C164.321 69.2625 164.18 69.1894 164.039 68.9701C163.899 68.8239 163.899 68.6046 163.899 68.3853C163.899 68.166 163.969 67.9467 164.11 67.7274C164.25 67.5081 164.462 67.2888 164.743 67.1426C164.954 66.9964 165.235 66.8502 165.517 66.7771C165.798 66.704 166.15 66.6309 166.432 66.6309C166.854 66.6309 167.205 66.6309 167.487 66.704C167.768 66.7771 168.05 66.9233 168.331 67.0695C168.613 67.2888 168.753 67.5081 168.894 67.8736C169.035 68.166 169.105 68.6046 169.105 69.1163C169.105 69.8474 169.105 70.5053 169.105 71.0901C169.105 71.6749 169.105 72.2597 169.105 72.9177C169.105 73.137 169.105 73.2832 169.175 73.4294C169.246 73.5756 169.316 73.6487 169.457 73.7218C169.527 73.7949 169.668 73.7949 169.809 73.7949C169.949 73.7949 170.16 73.7949 170.301 73.7949V74.3066H170.442ZM167.839 70.2129C167.417 70.3591 167.065 70.4322 166.713 70.5784C166.432 70.7246 166.08 70.8708 165.869 71.017C165.587 71.1632 165.447 71.3825 165.306 71.6018C165.165 71.8211 165.095 72.1135 165.095 72.479C165.095 72.9177 165.235 73.2101 165.447 73.4294C165.658 73.6487 165.939 73.7218 166.291 73.7218C166.643 73.7218 166.924 73.6487 167.205 73.4294C167.487 73.2832 167.698 73.0639 167.909 72.7714L167.839 70.2129Z"
			fill="currentColor"
		/>
		<path
			d="M174.592 74.3798H171.004V73.8681C171.145 73.8681 171.215 73.8681 171.356 73.8681C171.497 73.8681 171.567 73.8681 171.708 73.795C171.848 73.7219 171.919 73.6488 171.989 73.5757C172.06 73.4295 172.06 73.2833 172.06 73.1371V64.3648C172.06 64.1455 171.989 63.9993 171.919 63.8531C171.848 63.7069 171.708 63.5607 171.637 63.4876C171.567 63.4145 171.356 63.3414 171.145 63.3414C170.934 63.2683 170.723 63.2683 170.582 63.2683V62.7566L173.326 62.6104L173.396 62.7566V73.1371C173.396 73.2833 173.396 73.4295 173.467 73.5757C173.537 73.7219 173.607 73.795 173.748 73.8681C173.889 73.9412 173.959 73.9412 174.1 74.0143C174.17 74.0143 174.311 74.0874 174.452 74.0874V74.3798H174.592Z"
			fill="currentColor"
		/>
	</svg>

